<svg xmlns="http://www.w3.org/2000/svg" viewBox="0 0 244 244"><defs><style>.cls-1{fill:#011b33;}</style></defs><g id="Ebene_2" data-name="Ebene 2"><g id="Ebene_1-2" data-name="Ebene 1"><path class="cls-1" d="M122,1a121,121,0,0,1,85.56,206.56A121,121,0,0,1,36.44,36.44,120.22,120.22,0,0,1,122,1m0-1A122,122,0,1,0,244,122,122,122,0,0,0,122,0Z"/><path class="cls-1" d="M123,108.13A15.87,15.87,0,1,1,107.13,124,15.89,15.89,0,0,1,123,108.13m0-.13a16,16,0,1,0,16,16,16,16,0,0,0-16-16Z"/><circle class="cls-1" cx="123" cy="124" r="2.99"/><path class="cls-1" d="M123,121a3,3,0,1,1-3,3,3,3,0,0,1,3-3m0,0a3,3,0,1,0,3,3,3,3,0,0,0-3-3Z"/></g></g></svg>